<svg width="400" height="400" viewBox="0 0 400 400" fill="none" xmlns="http://www.w3.org/2000/svg">
<path d="M307.7 230.4V238.8H268.4V230.4H307.7ZM308.9 161.1V169.5H269.6V161.1H308.9ZM216.8 231.3V239.7H176V231.3H216.8ZM218 161.4V169.8H177.2V161.4H218ZM155.6 90.3V79.8L193.1 93.3H188V191.4C188 248.4 183.8 314.7 121.1 357.9L117.5 355.5C152.3 309.3 155.6 250.8 155.6 191.7V90.3ZM201.2 93.3L215.6 76.5L246.5 100.8C245 102.9 241.1 105.3 235.7 106.2V315.3C235.7 338.4 231.5 350.7 198.2 353.7C197.9 343.5 196.7 335.4 193.7 330.6C190.7 325.8 186.2 322.5 176 320.4V316.2C176 316.2 194.3 317.4 198.8 317.4C203 317.4 203.9 315.6 203.9 312V93.3H201.2ZM218.9 93.3V101.7H178.1V93.3H218.9ZM248.9 90.3V79.8L286.1 93.3H280.7V219C280.7 270.9 280.4 321.9 232.7 358.8L228.8 356.7C249.5 320.1 248.9 271.2 248.9 219.3V90.3ZM293 93.3L308 75.6L340.7 101.1C338.6 103.5 334.4 106.2 328.4 107.4V317.1C328.4 340.5 323.9 353.7 289.7 357C289.1 346.2 287.9 337.5 284.6 332.7C281.3 327.3 276.5 323.7 265.7 321.6V317.4C265.7 317.4 286.1 318.6 290.6 318.6C294.8 318.6 296 316.8 296 313.2V93.3H293ZM309.8 93.3V101.7H270.5V93.3H309.8ZM161.3 149.1C159.5 152.7 153.5 155.1 143.6 151.2L152.6 149.1C136.4 177.3 99.8 221.1 71 243.3L70.7 239.7H87.8C86.3 258.9 80.6 270.3 72.8 273.6L56.6 234.9C56.6 234.9 64.1 233.1 66.8 231C85.7 211.8 112.4 156.6 120.2 126L161.3 149.1ZM143.9 88.2C142.7 92.4 137.3 95.7 126.5 93.3L136.1 90.6C121.1 116.7 91.4 151.8 68.9 169.2L68.6 165.3H86.3C85.1 184.8 79.4 196.5 71.6 200.1L54.8 160.8C54.8 160.8 61.4 159 64.1 156.9C76.1 142.5 91.7 97.8 95.3 73.8L143.9 88.2ZM58.1 299.4C73.7 297 111.2 289.2 146.9 280.2L147.5 282.9C134.9 295.2 114.5 314.4 84.5 337.8C83.3 341.7 80 345.3 76.1 346.2L58.1 299.4ZM62.9 234.9C79.4 234 116 229.8 151.4 224.7L151.7 228.3C137 237.3 108.8 254.1 75.8 269.7L62.9 234.9ZM59.9 160.8C73.4 160.5 102.2 158.1 129.8 154.8L130.1 157.8C119.9 166.2 98 182.7 73.1 197.7L59.9 160.8Z" fill="black"/>
</svg>
